<?xml version="1.0" encoding="UTF-8" standalone="no"?>
<!DOCTYPE svg PUBLIC "-//W3C//DTD SVG 1.1//EN" "http://www.w3.org/Graphics/SVG/1.1/DTD/svg11.dtd">
<svg width="100%" height="100%" viewBox="0 0 512 512" version="1.1" xmlns="http://www.w3.org/2000/svg" xmlns:xlink="http://www.w3.org/1999/xlink" xml:space="preserve" xmlns:serif="http://www.serif.com/" style="fill-rule:evenodd;clip-rule:evenodd;stroke-linecap:round;stroke-linejoin:round;stroke-miterlimit:1.5;">
    <g>
        <path d="M279.974,73.771l19.168,15.395l-96.93,38.093l-0.034,258.331l-17.341,-15.24l-0.57,-258.537l95.707,-38.042Zm-99.707,291.675l-17.634,-16.151l-0.39,-255.105l97.277,-37.409l16.87,14l-96.256,37.545l0.133,257.12Z" style="fill:#3499cb;"/>
        <path d="M293.008,260.203l17.228,-6.412l-0.153,61.31l-82.135,31.274l0,-22.213l64.751,-26.323l0.309,-37.636Z" style="fill:#cb3434;"/>
        <path d="M314.369,252.115l17.336,-7.519l0.296,91.523l-104.053,38.652l0,-20.542l86.407,-35.38l0.014,-66.734Z" style="fill:#cb3434;"/>
        <path d="M205.809,130.237l17.507,15.347l80.326,-30.13l-0,112.736l-80.142,52.475l112.411,-43.165l0.671,102.092l-112.638,44.076l-0.706,-238.108l80.404,-53.111l16.272,15.453l0.413,95.39l10.723,8.901l-10.878,3.173l0.301,6.368c-0,0 14.914,-5.241 14.791,-5.818c-0.124,-0.576 17.973,15.164 17.973,15.164l0.611,125.407l-130.014,50.764l-17.47,-16.951l-0.555,-260.063l97.833,-37.788l-80.326,53.135l-17.507,-15.347Zm17.691,129.322l0.001,21.284l80.8,-53.181l-80.801,31.897Z" style="fill:#3499cb;stroke:#3499cb;stroke-width:1px;"/>
        <path d="M260.502,136.661l-0.982,55.786l-31.572,12.083l0,21.788l49.477,-19.419l-0.169,-75.648l-16.754,5.41Zm38.64,88.624l-71.194,26.966l0,-20.975l53.774,-21.128l-0.044,-81.047l17.279,-5.853l0.185,102.037Z" style="fill:#cb3434;"/>
    </g>
</svg>
